<svg width="161" height="142" viewBox="0 0 161 142" fill="none" xmlns="http://www.w3.org/2000/svg">
<g id="Image icon">
<g id="Image icon_2">
<path d="M81.4706 141.479C58.0324 141.479 34.5942 141.479 11.156 141.479C10.0111 141.479 8.85138 141.479 7.70151 141.36C1.83374 140.813 -0.525213 136.86 1.97686 131.515C4.14828 126.901 6.5171 122.405 8.81683 117.84C19.6739 96.3461 30.5311 74.8556 41.3882 53.3684C41.7237 52.7121 42.0741 52.0557 42.464 51.429C45.198 47.0466 49.6396 46.4298 53.1385 50.21C55.606 52.8552 57.6936 55.8261 59.8946 58.6934C71.0807 73.311 82.2668 87.9352 93.4529 102.566C98.3386 108.932 104.493 109.278 110.232 103.553C113.08 100.71 115.863 97.7937 118.745 94.9758C123.942 89.8927 129.839 90.1987 134.083 96.1257C142.601 108.019 150.907 120.071 159.252 132.082C159.904 133.025 160.404 134.064 160.732 135.162C161.542 137.921 160.397 140.141 157.599 140.877C155.844 141.297 154.043 141.491 152.239 141.454C128.663 141.494 105.073 141.502 81.4706 141.479Z" fill="#D4D2E3"/>
<path d="M134.034 23.7039C134.028 28.2916 132.66 32.7742 130.103 36.5834C127.546 40.3927 123.916 43.357 119.673 45.1006C115.429 46.8441 110.764 47.2885 106.267 46.3772C101.771 45.4659 97.6466 43.2401 94.4169 39.982C91.1871 36.7238 88.9975 32.58 88.1257 28.0759C87.2539 23.5718 87.739 18.9103 89.5197 14.6823C91.3004 10.4542 94.2964 6.85017 98.1279 4.32694C101.959 1.80372 106.454 0.474986 111.041 0.509189C117.15 0.586819 122.984 3.06182 127.285 7.40065C131.586 11.7395 134.01 17.5946 134.034 23.7039Z" fill="#D4D2E3"/>
</g>
</g>
</svg>
