<svg aria-hidden="true" style="position: absolute; width: 0; height: 0; overflow: hidden;" version="1.1" xmlns="http://www.w3.org/2000/svg" xmlns:xlink="http://www.w3.org/1999/xlink">
<defs>
<symbol id="icon-Earth" viewBox="0 0 32 32">
<path  d="M32 16c0-8.837-7.163-16-16-16s-16 7.163-16 16c0 8.837 7.163 16 16 16v0h0.178c8.73-0.020 15.802-7.092 15.822-15.82v-0.18zM29.333 16c0 1.191-0.178 2.364-0.48 3.502-0.082 0.288-0.342 0.495-0.651 0.495-0.092 0-0.18-0.018-0.26-0.052l0.004 0.002c-0.818-0.356-1.529-0.942-2.027-1.689l-2.951-4.444c-0.609-0.895-1.623-1.476-2.772-1.476-0 0-0.001 0-0.001 0h-0.587c-2.027 0-3.671-1.644-3.671-3.671s1.644-3.671 3.671-3.671v0h3.698c0.142 0 0.284 0.053 0.391 0.124 3.426 2.444 5.633 6.404 5.636 10.88v0zM2.898 13.547c0.060-0.306 0.327-0.533 0.646-0.533 0.004 0 0.008 0 0.012 0h5.795c0.002 0 0.004 0 0.005 0 1.284 0 2.446 0.523 3.283 1.369l1.494 1.494c0.839 0.845 1.358 2.009 1.358 3.295 0 1.194-0.448 2.284-1.184 3.11l0.004-0.005-1.796 2.027c-0.533 0.622-0.853 1.404-0.853 2.222v1.102c-0.013 0.363-0.31 0.652-0.675 0.652-0.090 0-0.175-0.017-0.254-0.049l0.005 0.002c-4.774-2.1-8.048-6.788-8.048-12.241 0-0.864 0.082-1.709 0.239-2.527l-0.013 0.084z"></path>
</symbol>
<symbol id="icon-Email" viewBox="0 0 32 32">
<path d="M31.644 13.138c-0.091-0.050-0.199-0.079-0.314-0.079-0.127 0-0.246 0.036-0.347 0.099l0.003-0.002-11.804 8.213c-0.904 0.57-2.003 0.909-3.182 0.909s-2.278-0.338-3.207-0.923l0.025 0.015-11.804-8.213c-0.101-0.066-0.224-0.104-0.356-0.104-0.363 0-0.658 0.294-0.658 0.658 0 0.005 0 0.011 0 0.016l-0-0.001v11.307c0 2.209 1.791 4 4 4v0h24c2.209 0 4-1.791 4-4v-11.307c0-0.001 0-0.002 0-0.002 0-0.253-0.143-0.472-0.352-0.582l-0.004-0.002z"></path>
<path d="M32 7.698c0-2.209-1.791-4-4-4v0h-24c-2.209 0-4 1.791-4 4v0c-0 0.004-0 0.009-0 0.014 0 0.069 0.035 0.129 0.089 0.164l0.001 0 14.844 10.080c0.303 0.192 0.671 0.307 1.067 0.307s0.764-0.114 1.075-0.311l-0.008 0.005 14.827-10.116c0.064-0.033 0.107-0.099 0.107-0.174 0-0.001 0-0.003-0-0.004v0z"></path>
</symbol>
<symbol id="icon-Phone" viewBox="0 0 32 32">
<path d="M30.844 22.933l-3.413-3.378c-0.708-0.707-1.685-1.144-2.764-1.144s-2.057 0.437-2.764 1.144l0-0-0.711 0.693c-3.456-2.915-6.552-6.021-9.362-9.375l-0.096-0.118 0.711-0.711c0.702-0.707 1.136-1.681 1.136-2.756s-0.434-2.049-1.136-2.756l-3.449-3.449c-0.72-0.688-1.697-1.111-2.773-1.111s-2.054 0.423-2.775 1.112l0.002-0.001-1.849 1.902c-0.988 1.001-1.599 2.377-1.599 3.896 0 1.13 0.338 2.181 0.918 3.058l-0.013-0.021c5.654 8.443 12.694 15.483 20.866 20.966l0.271 0.171c0.859 0.566 1.912 0.903 3.043 0.903 1.522 0 2.902-0.609 3.909-1.597l1.866-1.866c0.707-0.708 1.144-1.685 1.144-2.764s-0.437-2.057-1.144-2.764l0 0z"></path>
</symbol>
</defs>
</svg>
