<svg width="914" height="1234" viewBox="0 0 914 1234" fill="none" xmlns="http://www.w3.org/2000/svg">
<rect width="914" height="1234" fill="#ADABC3"/>
<path d="M457.484 687.479C434.046 687.479 410.608 687.479 387.169 687.479C386.025 687.479 384.865 687.479 383.715 687.36C377.847 686.813 375.488 682.86 377.99 677.515C380.162 672.901 382.531 668.405 384.83 663.84C395.687 642.346 406.544 620.856 417.402 599.368C417.737 598.712 418.088 598.056 418.477 597.429C421.211 593.047 425.653 592.43 429.152 596.21C431.619 598.855 433.707 601.826 435.908 604.693C447.094 619.311 458.28 633.935 469.466 648.566C474.352 654.932 480.506 655.278 486.246 649.553C489.093 646.71 491.876 643.794 494.758 640.976C499.955 635.893 505.852 636.199 510.097 642.126C518.615 654.019 526.92 666.071 535.265 678.082C535.918 679.025 536.417 680.064 536.746 681.162C537.555 683.921 536.41 686.141 533.612 686.877C531.858 687.297 530.056 687.491 528.253 687.454C504.676 687.494 481.087 687.502 457.484 687.479Z" fill="#BCBACD"/>
<path d="M510.047 569.704C510.041 574.292 508.673 578.774 506.116 582.583C503.56 586.393 499.93 589.357 495.686 591.101C491.443 592.844 486.777 593.288 482.281 592.377C477.784 591.466 473.66 589.24 470.43 585.982C467.201 582.724 465.011 578.58 464.139 574.076C463.267 569.572 463.752 564.91 465.533 560.682C467.314 556.454 470.31 552.85 474.141 550.327C477.973 547.804 482.467 546.475 487.055 546.509C493.164 546.587 498.997 549.062 503.298 553.401C507.599 557.739 510.023 563.595 510.047 569.704Z" fill="#BCBACD"/>
</svg>
